<svg width="66" height="82" viewBox="0 0 66 82" fill="none" xmlns="http://www.w3.org/2000/svg">
<path fill-rule="evenodd" clip-rule="evenodd" d="M63.8481 0.717394H4.30437C3.51197 0.717394 2.86958 1.35983 2.86958 2.15218V11.4783H2.51088H2.15218V2.15218C2.15218 0.963648 3.11574 0 4.30437 0H63.8481C65.0367 0 66.0003 0.963648 66.0003 2.15218V73.1742C66.0003 74.3628 65.0367 75.3264 63.8481 75.3264H57.2068L55.8238 80.7051C55.6607 81.3392 55.089 81.7825 54.4342 81.7825H43.1312C42.4764 81.7825 41.9047 81.3392 41.7416 80.7051L40.3585 75.3264H27.794L26.4109 80.7051C26.2478 81.3392 25.6761 81.7825 25.0213 81.7825H13.7184C13.0636 81.7825 12.4918 81.3392 12.3288 80.7051L10.9457 75.3264H4.30437C3.11574 75.3264 2.15218 74.3628 2.15218 73.1742V63.8481H2.51088H2.86958V73.1742C2.86958 73.9666 3.51197 74.609 4.30437 74.609H10.7612L10.7611 74.6086H27.9786L27.9785 74.609H40.1741L40.174 74.6086H57.3914L57.3913 74.609H63.8481C64.6405 74.609 65.2829 73.9666 65.2829 73.1742V2.15218C65.2829 1.35983 64.6405 0.717394 63.8481 0.717394ZM2.51088 48.0654C3.89759 48.0654 5.02176 49.1895 5.02176 50.5763V61.3372C5.02176 62.724 3.89759 63.8481 2.51088 63.8481C1.12417 63.8481 0 62.724 0 61.3372V50.5763C0 49.1895 1.12417 48.0654 2.51088 48.0654ZM2.51088 27.261H2.86958V48.0654H2.51088H2.15218V27.261H2.51088ZM2.51088 27.261C3.89759 27.261 5.02176 26.1369 5.02176 24.7501V13.9892C5.02176 12.6024 3.89759 11.4783 2.51088 11.4783C1.12417 11.4783 0 12.6024 0 13.9892V24.7501C0 26.1369 1.12417 27.261 2.51088 27.261ZM11.6864 75.3264L13.0236 80.5264C13.1051 80.8435 13.391 81.0651 13.7184 81.0651H25.0213C25.3487 81.0651 25.6346 80.8435 25.7161 80.5264L27.0533 75.3264H11.6864ZM41.0993 75.3264L42.4364 80.5264C42.5179 80.8435 42.8038 81.0651 43.1312 81.0651H54.4342C54.7616 81.0651 55.0474 80.8435 55.129 80.5264L56.4661 75.3264H41.0993ZM4.30437 24.7501V13.9892C4.30437 12.9986 3.50141 12.1957 2.51088 12.1957C1.52035 12.1957 0.717394 12.9986 0.717394 13.9892V24.7501C0.717394 25.7407 1.52035 26.5436 2.51088 26.5436C3.50141 26.5436 4.30437 25.7407 4.30437 24.7501ZM4.30437 50.5763V61.3372C4.30437 62.3278 3.50141 63.1307 2.51088 63.1307C1.52035 63.1307 0.717394 62.3278 0.717394 61.3372V50.5763C0.717394 49.5857 1.52035 48.7828 2.51088 48.7828C3.50141 48.7828 4.30437 49.5857 4.30437 50.5763ZM25.1554 27.2207L18.8145 20.8797C18.3943 20.4594 17.7129 20.4594 17.2927 20.8797C16.8725 21.2997 16.8725 21.9811 17.2927 22.4014L23.6336 28.7424L24.375 28.0011L24.4151 27.9609L25.1554 27.2207ZM16.7854 22.9086L23.2036 29.3266C21.2509 31.8228 20.0871 34.966 20.0871 38.3806C20.0871 41.7952 21.2509 44.9384 23.2036 47.4345L16.7854 53.8526C16.085 54.5528 16.085 55.6884 16.7854 56.3887C17.4858 57.0892 18.6214 57.0892 19.3218 56.3887L25.7398 49.9706C28.2359 51.9232 31.3789 53.0872 34.7937 53.0872C38.2085 53.0872 41.3514 51.9232 43.8475 49.9706L50.2655 56.3887C50.9659 57.0892 52.1015 57.0892 52.8019 56.3887C53.5023 55.6884 53.5023 54.5528 52.8019 53.8526L46.3838 47.4345C48.3364 44.9384 49.5003 41.7952 49.5003 38.3806C49.5003 34.966 48.3364 31.8228 46.3838 29.3266L52.8019 22.9086C53.5023 22.2084 53.5023 21.0728 52.8019 20.3725C52.1015 19.6719 50.9659 19.6719 50.2655 20.3725L43.8475 26.7905C41.3514 24.838 38.2085 23.674 34.7937 23.674C31.3789 23.674 28.2359 24.838 25.7398 26.7905L19.3218 20.3725C18.6214 19.6719 17.4858 19.6719 16.7854 20.3725C16.085 21.0728 16.085 22.2084 16.7854 22.9086ZM45.167 27.956L45.2173 28.0061L45.9537 28.7424L52.2946 22.4014C52.7149 21.9811 52.7149 21.2997 52.2946 20.8797C51.8744 20.4594 51.193 20.4594 50.7728 20.8797L44.4319 27.2207L45.167 27.956ZM44.4287 28.2383C42.0006 25.9309 38.7447 24.4863 35.1524 24.396V27.9784H34.435V24.396C30.8427 24.4863 27.5868 25.9309 25.1586 28.2383L27.6919 30.7716L27.1846 31.2788L24.6514 28.7455C22.344 31.1737 20.8994 34.4297 20.809 38.0219H24.3914V38.7393H20.809C20.8994 42.3315 22.344 45.5875 24.6514 48.0157L27.1846 45.4824L27.6918 45.9896L25.1586 48.5229C27.5867 50.8303 30.8427 52.2749 34.435 52.3652V48.7828H35.1524V52.3652C38.7447 52.2749 42.0006 50.8303 44.4287 48.5229L41.8955 45.9896L42.4027 45.4824L44.936 48.0157C47.2434 45.5875 48.6879 42.3315 48.7783 38.7393H45.1959V38.0219H48.7783C48.6879 34.4297 47.2433 31.1737 44.9359 28.7455L42.4027 31.2788L41.8954 30.7716L44.4287 28.2383ZM23.6336 48.0188L24.375 48.76L24.4151 48.8003L25.1554 49.5405L18.8145 55.8814C18.3943 56.3018 17.7129 56.3018 17.2927 55.8814C16.8725 55.4614 16.8725 54.7801 17.2927 54.3598L23.6336 48.0188ZM45.2173 48.7551L45.167 48.8052L44.4319 49.5405L50.7728 55.8814C51.193 56.3018 51.8744 56.3018 52.2946 55.8814C52.7149 55.4614 52.7149 54.7801 52.2946 54.3598L45.9537 48.0188L45.2173 48.7551ZM41.6089 38.3806C41.6089 42.1445 38.5576 45.1958 34.7937 45.1958C31.0297 45.1958 27.9784 42.1445 27.9784 38.3806C27.9784 34.6167 31.0297 31.5653 34.7937 31.5653C38.5576 31.5653 41.6089 34.6167 41.6089 38.3806ZM42.3263 38.3806C42.3263 42.5406 38.9538 45.9132 34.7937 45.9132C30.6335 45.9132 27.261 42.5406 27.261 38.3806C27.261 34.2205 30.6335 30.848 34.7937 30.848C38.9538 30.848 42.3263 34.2205 42.3263 38.3806ZM41.9676 5.02176C41.7695 5.02176 41.6089 5.18219 41.6089 5.38046C41.6089 5.57872 41.7695 5.73915 41.9676 5.73915H61.3372C61.5353 5.73915 61.6959 5.57872 61.6959 5.38046C61.6959 5.18219 61.5353 5.02176 61.3372 5.02176H41.9676ZM47.348 8.96743C47.348 8.76916 47.5086 8.60873 47.7067 8.60873H61.3372C61.5353 8.60873 61.6959 8.76916 61.6959 8.96743C61.6959 9.16569 61.5353 9.32613 61.3372 9.32613H47.7067C47.5086 9.32613 47.348 9.16569 47.348 8.96743Z" fill="#CFA466"/>
</svg>
